<svg width="190" height="70" viewBox="0 0 190 70" fill="none" xmlns="http://www.w3.org/2000/svg">
<path d="M15.04 22C15.36 22 15.64 22.12 15.88 22.36C16.1467 22.6 16.28 22.8933 16.28 23.24V48.76C16.2533 49.1067 16.1067 49.4 15.84 49.64C15.6 49.88 15.32 50 15 50C14.6267 50 14.32 49.88 14.08 49.64C13.8667 49.4 13.76 49.1067 13.76 48.76V23.24C13.76 22.8933 13.88 22.6 14.12 22.36C14.36 22.12 14.6667 22 15.04 22ZM33.8 22C34.1733 22 34.4667 22.12 34.68 22.36C34.92 22.6 35.04 22.8933 35.04 23.24V48.76C35.0133 49.1067 34.88 49.4 34.64 49.64C34.4267 49.88 34.1333 50 33.76 50C33.4133 50 33.12 49.88 32.88 49.64C32.64 49.4 32.52 49.1067 32.52 48.76V23.24C32.52 22.8933 32.64 22.6 32.88 22.36C33.1467 22.12 33.4533 22 33.8 22ZM14.84 34.52H33.84L33.8 36.84H14.68L14.84 34.52ZM62.3491 22C62.7224 22 63.0157 22.12 63.2291 22.36C63.4424 22.5733 63.5491 22.8533 63.5491 23.2V39.76C63.5491 41.7333 63.0824 43.52 62.1491 45.12C61.2157 46.72 59.9624 48 58.3891 48.96C56.8157 49.8933 55.0424 50.36 53.0691 50.36C51.0957 50.36 49.3091 49.8933 47.7091 48.96C46.1357 48 44.8824 46.72 43.9491 45.12C43.0157 43.52 42.5491 41.7333 42.5491 39.76V23.2C42.5491 22.8533 42.6557 22.5733 42.8691 22.36C43.1091 22.12 43.4291 22 43.8291 22C44.1491 22 44.4291 22.12 44.6691 22.36C44.9091 22.5733 45.0291 22.8533 45.0291 23.2V39.76C45.0291 41.3067 45.3891 42.6933 46.1091 43.92C46.8557 45.1467 47.8424 46.1333 49.0691 46.88C50.2957 47.6 51.6291 47.96 53.0691 47.96C54.5624 47.96 55.9224 47.6 57.1491 46.88C58.3757 46.1333 59.3491 45.1467 60.0691 43.92C60.8157 42.6933 61.1891 41.3067 61.1891 39.76V23.2C61.1891 22.8533 61.2957 22.5733 61.5091 22.36C61.7224 22.12 62.0024 22 62.3491 22ZM82.8647 22C85.1047 22 86.8514 22.6133 88.1047 23.84C89.3847 25.04 90.0247 26.72 90.0247 28.88C90.0247 30 89.7847 31.0667 89.3047 32.08C88.8247 33.0933 88.118 33.92 87.1847 34.56C86.2514 35.1733 85.0914 35.52 83.7047 35.6L83.5447 34.8C84.5314 34.8 85.4914 34.9467 86.4247 35.24C87.3847 35.5067 88.238 35.9467 88.9847 36.56C89.7314 37.1733 90.3314 37.9467 90.7847 38.88C91.238 39.7867 91.4647 40.8933 91.4647 42.2C91.4647 43.5867 91.2247 44.7867 90.7447 45.8C90.2914 46.7867 89.6647 47.5867 88.8647 48.2C88.0914 48.8133 87.198 49.2667 86.1847 49.56C85.1714 49.8533 84.118 50 83.0247 50H72.2647C71.9447 50 71.6647 49.88 71.4247 49.64C71.1847 49.4 71.0647 49.12 71.0647 48.8V23.2C71.0647 22.88 71.1847 22.6 71.4247 22.36C71.6647 22.12 71.9447 22 72.2647 22H82.8647ZM82.5447 24.36H73.1447L73.6247 23.64V34.96L73.1847 34.36H82.5447C83.9314 34.3333 85.0914 33.88 86.0247 33C86.9847 32.12 87.4647 30.8133 87.4647 29.08C87.4647 27.6133 87.038 26.4667 86.1847 25.64C85.3314 24.7867 84.118 24.36 82.5447 24.36ZM82.8247 36.76H73.4247L73.6247 36.52V48L73.3847 47.64H82.9047C84.6114 47.64 86.038 47.2133 87.1847 46.36C88.3314 45.48 88.9047 44.0933 88.9047 42.2C88.9047 40.8667 88.6247 39.8 88.0647 39C87.5047 38.2 86.758 37.6267 85.8247 37.28C84.8914 36.9333 83.8914 36.76 82.8247 36.76Z" fill="#5F2B64"/>
<path d="M111.799 29.68C112.146 29.68 112.426 29.8 112.639 30.04C112.879 30.28 112.999 30.56 112.999 30.88V42.16C112.999 44.8 112.253 46.8133 110.759 48.2C109.266 49.5867 107.253 50.28 104.719 50.28C102.213 50.28 100.213 49.5867 98.7194 48.2C97.2527 46.8133 96.5194 44.8 96.5194 42.16V30.88C96.5194 30.56 96.626 30.28 96.8394 30.04C97.0794 29.8 97.3727 29.68 97.7194 29.68C98.066 29.68 98.346 29.8 98.5594 30.04C98.7994 30.28 98.9194 30.56 98.9194 30.88V42.16C98.9194 44.08 99.426 45.5467 100.439 46.56C101.479 47.5467 102.906 48.04 104.719 48.04C106.559 48.04 107.999 47.5467 109.039 46.56C110.079 45.5467 110.599 44.08 110.599 42.16V30.88C110.599 30.56 110.706 30.28 110.919 30.04C111.133 29.8 111.426 29.68 111.799 29.68ZM118.133 46.76C117.919 46.44 117.813 46.1333 117.813 45.84C117.839 45.52 118.013 45.2667 118.333 45.08C118.546 44.8933 118.786 44.8133 119.053 44.84C119.346 44.8667 119.613 45 119.853 45.24C120.573 46.1733 121.439 46.9333 122.453 47.52C123.493 48.08 124.719 48.36 126.133 48.36C126.879 48.36 127.613 48.24 128.333 48C129.079 47.7333 129.693 47.3467 130.173 46.84C130.653 46.3067 130.893 45.64 130.893 44.84C130.893 44.0133 130.653 43.3467 130.173 42.84C129.693 42.3333 129.066 41.9333 128.293 41.64C127.546 41.3467 126.746 41.0933 125.893 40.88C124.986 40.64 124.106 40.3733 123.253 40.08C122.399 39.76 121.639 39.3733 120.973 38.92C120.333 38.44 119.813 37.8667 119.413 37.2C119.013 36.5333 118.813 35.72 118.813 34.76C118.813 33.64 119.119 32.6533 119.733 31.8C120.346 30.9467 121.173 30.28 122.213 29.8C123.279 29.32 124.479 29.08 125.813 29.08C126.479 29.08 127.199 29.1733 127.973 29.36C128.746 29.52 129.506 29.8 130.253 30.2C130.999 30.6 131.666 31.1467 132.253 31.84C132.493 32.08 132.613 32.36 132.613 32.68C132.613 32.9733 132.479 33.24 132.213 33.48C131.999 33.64 131.746 33.72 131.453 33.72C131.186 33.72 130.959 33.6133 130.773 33.4C130.133 32.68 129.373 32.1333 128.493 31.76C127.613 31.3867 126.666 31.2 125.653 31.2C124.879 31.2 124.146 31.3333 123.453 31.6C122.786 31.84 122.226 32.2133 121.773 32.72C121.319 33.2267 121.093 33.8933 121.093 34.72C121.146 35.4933 121.413 36.12 121.893 36.6C122.399 37.08 123.053 37.48 123.853 37.8C124.679 38.12 125.599 38.4133 126.613 38.68C127.466 38.8933 128.279 39.1467 129.053 39.44C129.853 39.7333 130.546 40.1067 131.133 40.56C131.746 40.9867 132.226 41.5333 132.573 42.2C132.946 42.8667 133.133 43.7067 133.133 44.72C133.133 45.8933 132.799 46.9067 132.133 47.76C131.493 48.6133 130.626 49.2667 129.533 49.72C128.439 50.1733 127.226 50.4 125.893 50.4C124.453 50.4 123.053 50.12 121.693 49.56C120.359 49 119.173 48.0667 118.133 46.76ZM147.043 29.08C148.323 29.08 149.496 29.2267 150.563 29.52C151.629 29.7867 152.483 30.16 153.123 30.64C153.789 31.12 154.123 31.64 154.123 32.2C154.123 32.4667 154.029 32.7333 153.843 33C153.656 33.24 153.403 33.36 153.083 33.36C152.763 33.36 152.496 33.28 152.283 33.12C152.096 32.96 151.896 32.7733 151.683 32.56C151.496 32.3467 151.216 32.1467 150.843 31.96C150.496 31.8 150.003 31.6533 149.363 31.52C148.723 31.3867 147.989 31.32 147.163 31.32C145.669 31.32 144.323 31.6933 143.123 32.44C141.923 33.1867 140.976 34.2 140.283 35.48C139.589 36.7333 139.243 38.1467 139.243 39.72C139.243 41.32 139.576 42.76 140.243 44.04C140.909 45.32 141.829 46.3333 143.003 47.08C144.176 47.8 145.549 48.16 147.123 48.16C148.189 48.16 149.016 48.0667 149.603 47.88C150.189 47.6933 150.696 47.48 151.123 47.24C151.629 46.9467 151.989 46.6667 152.203 46.4C152.443 46.1067 152.749 45.96 153.123 45.96C153.469 45.96 153.723 46.0667 153.883 46.28C154.069 46.4667 154.163 46.72 154.163 47.04C154.163 47.4667 153.843 47.9467 153.203 48.48C152.589 48.9867 151.736 49.44 150.643 49.84C149.549 50.2133 148.296 50.4 146.883 50.4C144.883 50.4 143.123 49.9333 141.603 49C140.109 48.0667 138.936 46.8 138.083 45.2C137.256 43.5733 136.843 41.7467 136.843 39.72C136.843 37.7733 137.269 36 138.123 34.4C138.976 32.8 140.163 31.52 141.683 30.56C143.229 29.5733 145.016 29.08 147.043 29.08ZM175.506 29.56C175.853 29.56 176.133 29.68 176.346 29.92C176.586 30.16 176.706 30.4533 176.706 30.8V48.8C176.706 49.12 176.586 49.4 176.346 49.64C176.106 49.88 175.826 50 175.506 50C175.159 50 174.866 49.88 174.626 49.64C174.413 49.4 174.306 49.12 174.306 48.8V44.04L174.986 43.72C174.986 44.4667 174.773 45.2267 174.346 46C173.946 46.7733 173.386 47.4933 172.666 48.16C171.946 48.8267 171.093 49.3733 170.106 49.8C169.146 50.2 168.106 50.4 166.986 50.4C165.173 50.4 163.546 49.9333 162.106 49C160.693 48.0667 159.573 46.7867 158.746 45.16C157.946 43.5333 157.546 41.7067 157.546 39.68C157.546 37.6 157.959 35.7733 158.786 34.2C159.613 32.6 160.733 31.3467 162.146 30.44C163.559 29.5333 165.159 29.08 166.946 29.08C168.093 29.08 169.159 29.28 170.146 29.68C171.159 30.08 172.039 30.6267 172.786 31.32C173.533 32.0133 174.106 32.8133 174.506 33.72C174.933 34.6 175.146 35.52 175.146 36.48L174.306 35.88V30.8C174.306 30.4533 174.413 30.16 174.626 29.92C174.866 29.68 175.159 29.56 175.506 29.56ZM167.186 48.16C168.599 48.16 169.853 47.8 170.946 47.08C172.039 46.3333 172.893 45.32 173.506 44.04C174.146 42.7333 174.466 41.28 174.466 39.68C174.466 38.1067 174.146 36.6933 173.506 35.44C172.893 34.1867 172.039 33.1867 170.946 32.44C169.853 31.6933 168.599 31.32 167.186 31.32C165.799 31.32 164.546 31.68 163.426 32.4C162.333 33.12 161.466 34.1067 160.826 35.36C160.213 36.6133 159.906 38.0533 159.906 39.68C159.906 41.28 160.213 42.7333 160.826 44.04C161.466 45.32 162.333 46.3333 163.426 47.08C164.519 47.8 165.773 48.16 167.186 48.16Z" fill="#0F172A"/>
</svg>
